<svg xmlns="http://www.w3.org/2000/svg" class="svg-inline--fa fa-user-cog fa-w-20" role="img" aria-hidden="true" viewBox="0 0 640 512" data-icon="user-cog" data-prefix="fas"><path fill="currentColor" d="M 610.5 373.3 c 2.6 -14.1 2.6 -28.5 0 -42.6 l 25.8 -14.9 c 3 -1.7 4.3 -5.2 3.3 -8.5 c -6.7 -21.6 -18.2 -41.2 -33.2 -57.4 c -2.3 -2.5 -6 -3.1 -9 -1.4 l -25.8 14.9 c -10.9 -9.3 -23.4 -16.5 -36.9 -21.3 v -29.8 c 0 -3.4 -2.4 -6.4 -5.7 -7.1 c -22.3 -5 -45 -4.8 -66.2 0 c -3.3 0.7 -5.7 3.7 -5.7 7.1 v 29.8 c -13.5 4.8 -26 12 -36.9 21.3 l -25.8 -14.9 c -2.9 -1.7 -6.7 -1.1 -9 1.4 c -15 16.2 -26.5 35.8 -33.2 57.4 c -1 3.3 0.4 6.8 3.3 8.5 l 25.8 14.9 c -2.6 14.1 -2.6 28.5 0 42.6 l -25.8 14.9 c -3 1.7 -4.3 5.2 -3.3 8.5 c 6.7 21.6 18.2 41.1 33.2 57.4 c 2.3 2.5 6 3.1 9 1.4 l 25.8 -14.9 c 10.9 9.3 23.4 16.5 36.9 21.3 v 29.8 c 0 3.4 2.4 6.4 5.7 7.1 c 22.3 5 45 4.8 66.2 0 c 3.3 -0.7 5.7 -3.7 5.7 -7.1 v -29.8 c 13.5 -4.8 26 -12 36.9 -21.3 l 25.8 14.9 c 2.9 1.7 6.7 1.1 9 -1.4 c 15 -16.2 26.5 -35.8 33.2 -57.4 c 1 -3.3 -0.4 -6.8 -3.3 -8.5 l -25.8 -14.9 Z M 496 400.5 c -26.8 0 -48.5 -21.8 -48.5 -48.5 s 21.8 -48.5 48.5 -48.5 s 48.5 21.8 48.5 48.5 s -21.7 48.5 -48.5 48.5 Z M 224 256 c 70.7 0 128 -57.3 128 -128 S 294.7 0 224 0 S 96 57.3 96 128 s 57.3 128 128 128 Z m 201.2 226.5 c -2.3 -1.2 -4.6 -2.6 -6.8 -3.9 l -7.9 4.6 c -6 3.4 -12.8 5.3 -19.6 5.3 c -10.9 0 -21.4 -4.6 -28.9 -12.6 c -18.3 -19.8 -32.3 -43.9 -40.2 -69.6 c -5.5 -17.7 1.9 -36.4 17.9 -45.7 l 7.9 -4.6 c -0.1 -2.6 -0.1 -5.2 0 -7.8 l -7.9 -4.6 c -16 -9.2 -23.4 -28 -17.9 -45.7 c 0.9 -2.9 2.2 -5.8 3.2 -8.7 c -3.8 -0.3 -7.5 -1.2 -11.4 -1.2 h -16.7 c -22.2 10.2 -46.9 16 -72.9 16 s -50.6 -5.8 -72.9 -16 h -16.7 C 60.2 288 0 348.2 0 422.4 V 464 c 0 26.5 21.5 48 48 48 h 352 c 10.1 0 19.5 -3.2 27.2 -8.5 c -1.2 -3.8 -2 -7.7 -2 -11.8 v -9.2 Z" /></svg>